<svg xmlns="http://www.w3.org/2000/svg" viewBox="0 0 152 1168"><defs><style>.cls-1{fill:#fff;}</style></defs><title>title.black.svg.symbol.vertical</title><g id="Layer_2" data-name="Layer 2"><rect width="152" height="1168"/></g><g id="Layer_1" data-name="Layer 1"><path class="cls-1" d="M124.64,1168h-1.51a21,21,0,0,0-1.09-6.18,11.32,11.32,0,0,0-2.74-4.12,10.68,10.68,0,0,0-5.35-2.83,50.3,50.3,0,0,0-10-.73H55.28a50.41,50.41,0,0,0-10,.73,10.69,10.69,0,0,0-5.34,2.83,10.36,10.36,0,0,0-2.77,4.16,21.73,21.73,0,0,0-1,6.14H34.56v-43.36q0-6.6.13-8.64a28.48,28.48,0,0,1,3.56-12.48,18.59,18.59,0,0,1,6.94-6.64,20,20,0,0,1,9.69-2.33,19.58,19.58,0,0,1,14.19,5.34,18,18,0,0,1,3.4,4.36,51.63,51.63,0,0,1,3,7.06,58,58,0,0,1,2.3-9.83,22.34,22.34,0,0,1,3.5-6.34,23.41,23.41,0,0,1,8.55-6.56,26,26,0,0,1,11-2.34,25,25,0,0,1,11,2.42,20.53,20.53,0,0,1,8,6.7,24.31,24.31,0,0,1,3.77,9.28,83.38,83.38,0,0,1,1,15.14Zm-88-28.25H75.8v-5.35a57.92,57.92,0,0,0-.52-7.79,33.81,33.81,0,0,0-1.21-5.63,15.51,15.51,0,0,0-2.07-4,16.53,16.53,0,0,0-6.43-5.17,20.33,20.33,0,0,0-8.69-1.82,24.73,24.73,0,0,0-9.53,1.88,17.44,17.44,0,0,0-7,5,15,15,0,0,0-3,6.16,50.94,50.94,0,0,0-.8,10.53Zm41.24,0H105a36.33,36.33,0,0,0,8-.7,13.16,13.16,0,0,0,5.14-2.28q4.44-3.35,4.43-11.54,0-10.63-5.81-16.8T101,1102.2a29.19,29.19,0,0,0-10.66,1.92,17.86,17.86,0,0,0-7.55,5.14q-4.84,5.94-4.84,18.61Z"/><path class="cls-1" d="M124.64,1090.57h-1.58q0-6.66-3.76-10.29a11.17,11.17,0,0,0-5.38-2.8,47.9,47.9,0,0,0-10-.76H55.28a47.14,47.14,0,0,0-10.33.82,11,11,0,0,0-5.44,3.07,11.74,11.74,0,0,0-2.5,4.13,19.57,19.57,0,0,0-.92,5.83H34.56v-42.16h1.53a22.5,22.5,0,0,0,1,5.93,10.83,10.83,0,0,0,8,7.13,48,48,0,0,0,10.22.8H93.37q8.76,0,13.06-.46a21.81,21.81,0,0,0,7-1.78,14.6,14.6,0,0,0,7-6.87A28,28,0,0,0,122.6,1041a37,37,0,0,0-2.08-13.22,20.35,20.35,0,0,0-6.44-8.82,26.84,26.84,0,0,0-6.72-3.79,61,61,0,0,0-9.92-2.64l.13-1.59,27.06.86Z"/><path class="cls-1" d="M23.55,968.11a56.89,56.89,0,0,0,14.78-6q6.9-4,18.4-16.21,10.43-11.58,15.74-14.46a25,25,0,0,1,11.22-3,17.79,17.79,0,0,1,13.18,5.3,17.29,17.29,0,0,1,5.21,12.52q0,12.83-15.69,21,13.15-.33,20-3.63A24.19,24.19,0,0,0,117,953.73q3.87-6.65,4.52-17.57l3-.5v64.89l-3-.5a34.72,34.72,0,0,0-3.93-17.16,25.87,25.87,0,0,0-11-10.68q-7.05-3.65-19-3.64H86.39q15.75,7.39,15.69,21.36a17.5,17.5,0,0,1-5.21,12.76A17.26,17.26,0,0,1,84.11,1008a23,23,0,0,1-12.93-3.63q-5.55-3.63-12.29-11.91-9.75-11.25-17.4-16.71A47.76,47.76,0,0,0,23.55,968.11Z"/><path class="cls-1" d="M34.1,843.77,63.61,843v1.51c-1.29.48-2.26.86-2.91,1.13q-6.33,2.31-9.44,3.75a33.36,33.36,0,0,0-10.16,7.46A24.31,24.31,0,0,0,36,864.5a23.93,23.93,0,0,0-1.56,8.9,24.93,24.93,0,0,0,3.23,12.94,32.78,32.78,0,0,0,8.16,9A47.34,47.34,0,0,0,58,902.11a59.42,59.42,0,0,0,21.8,3.77,63.14,63.14,0,0,0,18.68-2.58,37.16,37.16,0,0,0,13.92-7.53q10.43-9.09,10.43-24.15a33.76,33.76,0,0,0-2.61-13.53,21.4,21.4,0,0,0-7.36-9.3A37.65,37.65,0,0,0,98,843.25l.27-1.52q10.42,1.2,16.56,5.68a26.41,26.41,0,0,1,9,11.64,44.2,44.2,0,0,1,3.1,17.2,55.71,55.71,0,0,1-2.7,17.42,38.31,38.31,0,0,1-15.75,20.72q-11.39,7.46-27.15,7.45a55.84,55.84,0,0,1-22.28-4.35,41.24,41.24,0,0,1-16.4-12.11A47.14,47.14,0,0,1,35.09,891a50,50,0,0,1,.23-33.62L37.1,852a8,8,0,0,0,.6-2.78,3.29,3.29,0,0,0-1.38-2.7,12.82,12.82,0,0,0-2.18-1.12Z"/><path class="cls-1" d="M78.71,808.86,51,780.94a53.55,53.55,0,0,0-5.58-5.17,5.55,5.55,0,0,0-3.27-1,5.24,5.24,0,0,0-4.84,3.18,17.45,17.45,0,0,0-1.21,5.53H34.56V755h1.53a19.4,19.4,0,0,0,.95,4.84,17.86,17.86,0,0,0,2.34,4.26A101.17,101.17,0,0,0,47.23,773l20.59,21.38,38.76-30.42,4.85-3.76a37.77,37.77,0,0,0,8-8.64,23.87,23.87,0,0,0,2.53-4.76,23.4,23.4,0,0,0,1.22-5.15h1.51v43.61h-1.51a18.14,18.14,0,0,0-1.65-7.14,4,4,0,0,0-3.71-2.18q-2.62,0-6.72,2.72c-1.32.87-3.63,2.53-6.87,4.94s-6,4.5-8,6.14L77.81,804.54,82,808.83h21.8a48,48,0,0,0,10-.77,11,11,0,0,0,8.12-6.92,20.9,20.9,0,0,0,1.09-6.17h1.51v42.2h-1.51A20.78,20.78,0,0,0,122,831a11.2,11.2,0,0,0-2.74-4.13,10.76,10.76,0,0,0-5.36-2.84,50.3,50.3,0,0,0-10-.73H55.28a50.41,50.41,0,0,0-10,.73,10.7,10.7,0,0,0-5.34,2.84A10.36,10.36,0,0,0,37.14,831a21.66,21.66,0,0,0-1,6.13H34.56V795h1.53a21.46,21.46,0,0,0,1,6,11,11,0,0,0,2.77,4.19,11.15,11.15,0,0,0,5.44,2.85,47.86,47.86,0,0,0,10,.76Z"/><path class="cls-1" d="M34.56,688h1.53a24.32,24.32,0,0,0,.84,5.62,11.41,11.41,0,0,0,2.18,3.89A10.91,10.91,0,0,0,44.59,701,41,41,0,0,0,55,702h58.93a54.46,54.46,0,0,1,13.76,1.32,18,18,0,0,1,8.21,4.84,25.69,25.69,0,0,1,5.45,9.44,36.48,36.48,0,0,1,2.07,12.11,31.71,31.71,0,0,1-.79,7.2,18.41,18.41,0,0,1-2.1,5.6,7.23,7.23,0,0,1-6.34,3.91,5.21,5.21,0,0,1-5.41-5.49,5.57,5.57,0,0,1,1.58-4,7.54,7.54,0,0,1,1.94-1.38c.78-.4,2.19-1,4.27-1.79a9.67,9.67,0,0,0,4.05-2.64,6.12,6.12,0,0,0,1.21-4,8.16,8.16,0,0,0-2-5.51A12.9,12.9,0,0,0,133.8,718q-5.34-1.66-20.52-1.65H54.88a44.08,44.08,0,0,0-7.52.59,12.11,12.11,0,0,0-6.72,3.17,15.46,15.46,0,0,0-4.55,10.42H34.56Z"/><path class="cls-1" d="M23.55,651.78a57.21,57.21,0,0,0,14.78-5.94q6.9-4,18.4-16.22Q67.16,618,72.47,615.15a25,25,0,0,1,11.22-3,17.66,17.66,0,0,1,13.18,5.29,17.25,17.25,0,0,1,5.21,12.52q0,12.81-15.69,21,13.15-.33,20-3.63A24.23,24.23,0,0,0,117,637.41q3.87-6.66,4.52-17.58l3-.5v64.88l-3-.49a34.72,34.72,0,0,0-3.93-17.16,25.87,25.87,0,0,0-11-10.68q-7.05-3.64-19-3.64H86.39q15.75,7.41,15.69,21.36a17.53,17.53,0,0,1-5.21,12.77,17.33,17.33,0,0,1-12.76,5.33,23.12,23.12,0,0,1-12.93-3.64q-5.55-3.63-12.29-11.91-9.78-11.22-17.44-16.69A47.94,47.94,0,0,0,23.55,651.78Z"/><path class="cls-1" d="M34.1,527.71l29.51-.79v1.52c-1.29.48-2.26.86-2.91,1.12q-6.33,2.31-9.44,3.77a33.16,33.16,0,0,0-10.16,7.45A24.37,24.37,0,0,0,36,548.44a24,24,0,0,0-1.56,8.91,25.12,25.12,0,0,0,3.23,12.94,32.6,32.6,0,0,0,8.16,9A47.67,47.67,0,0,0,58,586.06a59.19,59.19,0,0,0,21.8,3.75,63.45,63.45,0,0,0,18.68-2.56,37.66,37.66,0,0,0,13.92-7.53q10.43-9.12,10.43-24.16A33.72,33.72,0,0,0,120.17,542a21.3,21.3,0,0,0-7.36-9.31A37.65,37.65,0,0,0,98,527.19l.27-1.51q10.42,1.2,16.56,5.66a26.47,26.47,0,0,1,9,11.66,44.12,44.12,0,0,1,3.1,17.19,55.6,55.6,0,0,1-2.7,17.41,38.3,38.3,0,0,1-15.75,20.73q-11.39,7.44-27.15,7.46a56,56,0,0,1-22.28-4.36,41.24,41.24,0,0,1-16.4-12.11A47.64,47.64,0,0,1,35.09,575a50,50,0,0,1,.2-33.59L37.07,536a8,8,0,0,0,.59-2.77,3.26,3.26,0,0,0-1.38-2.72,13.59,13.59,0,0,0-2.18-1.12Z"/><path class="cls-1" d="M78.71,494,51,466.15A51.63,51.63,0,0,0,45.42,461a5.7,5.7,0,0,0-3.27-1,5.24,5.24,0,0,0-4.84,3.16,17.63,17.63,0,0,0-1.21,5.55H34.56v-28.5h1.53A19.49,19.49,0,0,0,37,445a17.9,17.9,0,0,0,2.34,4.32,102.64,102.64,0,0,0,7.85,8.84l20.59,21.39,38.76-30.43,4.85-3.77a37.52,37.52,0,0,0,8-8.63A23.87,23.87,0,0,0,122,432a23.4,23.4,0,0,0,1.22-5.15h1.51v43.61h-1.51a18.14,18.14,0,0,0-1.65-7.14,4,4,0,0,0-3.71-2.18c-1.75,0-4,.91-6.72,2.71q-2,1.33-6.87,4.95t-8,6.11L77.81,489.72,82,494h21.8a48.63,48.63,0,0,0,10-.75,11.08,11.08,0,0,0,8.12-6.94,20.9,20.9,0,0,0,1.09-6.17h1.51v42.17h-1.51a20.9,20.9,0,0,0-1.09-6.17,11.36,11.36,0,0,0-2.74-4.13,10.75,10.75,0,0,0-5.36-2.83,50.3,50.3,0,0,0-10-.73H55.28a50.41,50.41,0,0,0-10,.73A10.69,10.69,0,0,0,39.91,512a10.47,10.47,0,0,0-2.77,4.17,21.66,21.66,0,0,0-1,6.13H34.56V480.15h1.53a21.53,21.53,0,0,0,1,6.06,10.88,10.88,0,0,0,2.77,4.29,11.17,11.17,0,0,0,5.44,2.76,48.54,48.54,0,0,0,10,.75Z"/><path class="cls-1" d="M124.38,388.4l-27.26-.19.07-1.52a59.38,59.38,0,0,0,16.39-6.6q11.07-7.2,11.06-18.08a16.76,16.76,0,0,0-5.07-12.54,17.69,17.69,0,0,0-12.88-5,23.36,23.36,0,0,0-6.85,1.09,20.06,20.06,0,0,0-6.06,2.95,22.1,22.1,0,0,0-5,5.38,102.56,102.56,0,0,0-5.92,10.59,103.52,103.52,0,0,1-5.34,9.61,27.85,27.85,0,0,1-4.42,5.38A21.62,21.62,0,0,1,58,385.12a26.19,26.19,0,0,1-10.55-2.21,25.29,25.29,0,0,1-8.71-6.18,23.52,23.52,0,0,1-6.47-16.55,24.77,24.77,0,0,1,.62-5.75,47.81,47.81,0,0,1,2.42-7.06c.87-2.2,1.44-3.69,1.68-4.49a6.87,6.87,0,0,0,.36-2.11q0-2.31-3.36-3.1v-1.51l26.2-.46v1.51c-4.18,1.21-7.39,2.2-9.61,3.06a35.39,35.39,0,0,0-6.16,3.07,23.58,23.58,0,0,0-7.63,7.11,16.36,16.36,0,0,0-2.43,9,14.59,14.59,0,0,0,5,11.66,15.15,15.15,0,0,0,4.85,2.79,15.46,15.46,0,0,0,5.54,1q11,0,17.77-14.17L72,351.48Q77.09,340.74,83.23,336a25,25,0,0,1,16-5.39A28.33,28.33,0,0,1,110.82,333a25.72,25.72,0,0,1,11.88,10.3,30.37,30.37,0,0,1,4.18,16.17,40.88,40.88,0,0,1-3.36,16.36c-1.21,2.73-1.87,4.36-2,4.85a5.91,5.91,0,0,0-.27,1.78,4.36,4.36,0,0,0,3.17,4.36Z"/><path class="cls-1" d="M36.61,286.11q0,4.15.26,8.91.54,10.16,2.58,15.14a17.75,17.75,0,0,0,7.11,8.23,37.13,37.13,0,0,0,12.55,4.55L59,324.46l-24.36-1.22V234L59,232.77l.13,1.53q-9.18,1.78-13.89,5.57a21,21,0,0,0-6.77,11.06q-1.79,6.13-1.78,20.79H104a47.91,47.91,0,0,0,10-.77,11.09,11.09,0,0,0,8.16-7,21.76,21.76,0,0,0,1-6h1.51v42.16h-1.51a21.86,21.86,0,0,0-1-6.16,11.13,11.13,0,0,0-8.13-7,47.53,47.53,0,0,0-10-.77Z"/><path class="cls-1" d="M36.61,117.68c0,2.77.09,5.75.26,8.91q.54,10.16,2.58,15.14A17.75,17.75,0,0,0,46.56,150a37.13,37.13,0,0,0,12.55,4.55L59,156l-24.36-1.21V65.55L59,64.34l.13,1.53q-9.18,1.78-13.89,5.57A21,21,0,0,0,38.45,82.5q-1.79,6.14-1.78,20.79H104a47.91,47.91,0,0,0,10-.77,11.09,11.09,0,0,0,8.16-7,21.83,21.83,0,0,0,1-6h1.51v42.16h-1.51a21.86,21.86,0,0,0-1-6.16,11.14,11.14,0,0,0-8.13-7,48.19,48.19,0,0,0-10-.76Z"/><path class="cls-1" d="M124.38,60,97.12,59.8l.07-1.51a59.1,59.1,0,0,0,16.39-6.61q11.07-7.18,11.06-18.08a16.82,16.82,0,0,0-5.07-12.54,17.73,17.73,0,0,0-12.88-4.94,22.72,22.72,0,0,0-6.85,1.09,19.55,19.55,0,0,0-6.06,2.93,22.47,22.47,0,0,0-5,5.38,101.55,101.55,0,0,0-6,10.59,103.35,103.35,0,0,1-5.34,9.6A27.55,27.55,0,0,1,73,51.09a21.57,21.57,0,0,1-15.12,5.68,25.91,25.91,0,0,1-10.55-2.22,25.15,25.15,0,0,1-8.61-6.17,23.58,23.58,0,0,1-6.47-16.57,24.62,24.62,0,0,1,.62-5.74A48.71,48.71,0,0,1,35.3,19c.87-2.19,1.44-3.69,1.68-4.48a6.87,6.87,0,0,0,.36-2.11c0-1.55-1.12-2.58-3.36-3.11V7.8l26.2-.46V8.85c-4.18,1.21-7.39,2.22-9.61,3.07A36.07,36.07,0,0,0,44.41,15a23.83,23.83,0,0,0-7.63,7.12,16.36,16.36,0,0,0-2.43,9,14.52,14.52,0,0,0,5,11.66,15.18,15.18,0,0,0,4.85,2.8,16.13,16.13,0,0,0,5.54,1q11,0,17.77-14.16L72,23.09q5.09-10.77,11.23-15.5a25.1,25.1,0,0,1,16-5.4A28.33,28.33,0,0,1,110.8,4.61a25.83,25.83,0,0,1,11.88,10.3,30.45,30.45,0,0,1,4.18,16.16,41,41,0,0,1-3.37,16.37c-1.21,2.73-1.86,4.35-2,4.85a5.38,5.38,0,0,0-.27,1.78,4.34,4.34,0,0,0,3.16,4.35Z"/><path class="cls-1" d="M125.83,161.14v68l-2.83-.65q-2.09-10.9-4.35-15.75a24.18,24.18,0,0,0-7.08-8.6,38.87,38.87,0,0,0-10.81-6A35.29,35.29,0,0,0,88.64,196l-3.79.24q9.78,4.61,14.54,11.72a25.68,25.68,0,0,1,4.72,14.36,21.89,21.89,0,0,1-6.33,15.82,21.54,21.54,0,0,1-16.19,6.54,22,22,0,0,1-15.65-5.92q-6.31-6-6.49-13.41,0-4.92,4.12-13.07-5.32,3-8.48,4.43a20.36,20.36,0,0,1-6.06.9A20.61,20.61,0,0,1,33.21,211a22.29,22.29,0,0,1-6.05-15.66,21.53,21.53,0,0,1,6.45-15.82,20.73,20.73,0,0,1,15-6.41q6.95,0,14.85,5.56A83.49,83.49,0,0,1,60,170.63a15.2,15.2,0,0,1-.64-4.93,17.45,17.45,0,0,1,6.3-13.88,21.11,21.11,0,0,1,15.49-6,22.4,22.4,0,0,1,16.06,6.3,20.69,20.69,0,0,1,6.63,15.66,23.75,23.75,0,0,1-2,9.28,33.07,33.07,0,0,1-5.28,8.6q-3.28,3.84-11.75,8.76a62.08,62.08,0,0,0,16.25-2.35,29.13,29.13,0,0,0,11.06-6.46,28.37,28.37,0,0,0,7-9.6A68.26,68.26,0,0,0,123,161.86Z"/></g></svg>