<svg xmlns="http://www.w3.org/2000/svg" viewBox="0 0 1168 152"><defs><style>.cls-1{fill:#fff;}</style></defs><title>title.black.svg.symbol</title><g id="Layer_2" data-name="Layer 2"><rect x="508" y="-508" width="152" height="1168" transform="translate(660 -508) rotate(90)"/></g><g id="Layer_1" data-name="Layer 1"><path class="cls-1" d="M0,124.64v-1.51A21,21,0,0,0,6.18,122a11.32,11.32,0,0,0,4.12-2.74A10.68,10.68,0,0,0,13.13,114a50.3,50.3,0,0,0,.73-10V55.28a50.41,50.41,0,0,0-.73-10,10.69,10.69,0,0,0-2.83-5.34,10.36,10.36,0,0,0-4.16-2.77,21.73,21.73,0,0,0-6.14-1V34.56H43.36q6.6,0,8.64.13a28.48,28.48,0,0,1,12.48,3.56,18.59,18.59,0,0,1,6.64,6.94,20,20,0,0,1,2.33,9.69,19.58,19.58,0,0,1-5.34,14.19,18,18,0,0,1-4.36,3.4,51.63,51.63,0,0,1-7.06,3,58,58,0,0,1,9.83,2.3,22.34,22.34,0,0,1,6.34,3.5,23.41,23.41,0,0,1,6.56,8.55,26,26,0,0,1,2.34,11,25,25,0,0,1-2.42,11,20.53,20.53,0,0,1-6.7,8,24.31,24.31,0,0,1-9.28,3.77,83.38,83.38,0,0,1-15.14,1Zm28.25-88V75.8H33.6a57.92,57.92,0,0,0,7.79-.52A33.81,33.81,0,0,0,47,74.07,15.51,15.51,0,0,0,51,72a16.53,16.53,0,0,0,5.17-6.43A20.33,20.33,0,0,0,58,56.88a24.73,24.73,0,0,0-1.88-9.53,17.44,17.44,0,0,0-5-7,15,15,0,0,0-6.16-3,50.94,50.94,0,0,0-10.53-.8Zm0,41.24V105a36.33,36.33,0,0,0,.7,8,13.16,13.16,0,0,0,2.28,5.14q3.35,4.44,11.54,4.43,10.63,0,16.8-5.81T65.8,101a29.19,29.19,0,0,0-1.92-10.66,17.86,17.86,0,0,0-5.14-7.55Q52.8,77.9,40.13,77.9Z"/><path class="cls-1" d="M77.43,124.64v-1.58q6.66,0,10.29-3.76a11.17,11.17,0,0,0,2.8-5.38,47.9,47.9,0,0,0,.76-10V55.28A47.14,47.14,0,0,0,90.46,45a11,11,0,0,0-3.07-5.44A11.74,11.74,0,0,0,83.26,37a19.57,19.57,0,0,0-5.83-.92V34.56h42.16v1.53a22.5,22.5,0,0,0-5.93,1,10.83,10.83,0,0,0-7.13,8,48,48,0,0,0-.8,10.22V93.37q0,8.76.46,13.06a21.81,21.81,0,0,0,1.78,7,14.6,14.6,0,0,0,6.87,7A28,28,0,0,0,127,122.6a37,37,0,0,0,13.22-2.08,20.35,20.35,0,0,0,8.82-6.44,26.84,26.84,0,0,0,3.79-6.72,61,61,0,0,0,2.64-9.92l1.59.13-.86,27.06Z"/><path class="cls-1" d="M199.89,23.55a56.89,56.89,0,0,0,6,14.78q4,6.9,16.21,18.4,11.58,10.43,14.46,15.74a25,25,0,0,1,3,11.22,17.79,17.79,0,0,1-5.3,13.18,17.29,17.29,0,0,1-12.52,5.21q-12.82,0-21-15.69.33,13.15,3.63,20A24.19,24.19,0,0,0,214.27,117q6.64,3.87,17.57,4.52l.5,3H167.45l.5-3a34.72,34.72,0,0,0,17.16-3.93,25.87,25.87,0,0,0,10.68-11q3.65-7.05,3.64-19V86.39q-7.4,15.75-21.36,15.69a17.5,17.5,0,0,1-12.76-5.21A17.26,17.26,0,0,1,160,84.11a23,23,0,0,1,3.63-12.93q3.63-5.55,11.91-12.29,11.25-9.75,16.71-17.4A47.76,47.76,0,0,0,199.89,23.55Z"/><path class="cls-1" d="M324.23,34.1,325,63.61H323.5c-.48-1.29-.86-2.26-1.13-2.91q-2.31-6.33-3.75-9.44a33.36,33.36,0,0,0-7.46-10.16A24.31,24.31,0,0,0,303.5,36a23.93,23.93,0,0,0-8.9-1.56,24.93,24.93,0,0,0-12.94,3.23,32.78,32.78,0,0,0-9,8.16A47.34,47.34,0,0,0,265.89,58a59.42,59.42,0,0,0-3.77,21.8,63.14,63.14,0,0,0,2.58,18.68,37.16,37.16,0,0,0,7.53,13.92q9.09,10.43,24.15,10.43a33.76,33.76,0,0,0,13.53-2.61,21.4,21.4,0,0,0,9.3-7.36A37.65,37.65,0,0,0,324.75,98l1.52.27q-1.2,10.42-5.68,16.56a26.41,26.41,0,0,1-11.64,9,44.2,44.2,0,0,1-17.2,3.1,55.71,55.71,0,0,1-17.42-2.7,38.31,38.31,0,0,1-20.72-15.75q-7.46-11.39-7.45-27.15a55.84,55.84,0,0,1,4.35-22.28,41.24,41.24,0,0,1,12.11-16.4A47.14,47.14,0,0,1,277,35.09a50,50,0,0,1,33.62.23L316,37.1a8,8,0,0,0,2.78.6,3.29,3.29,0,0,0,2.7-1.38,12.82,12.82,0,0,0,1.12-2.18Z"/><path class="cls-1" d="M359.14,78.71,387.06,51a53.55,53.55,0,0,0,5.17-5.58,5.55,5.55,0,0,0,1-3.27,5.24,5.24,0,0,0-3.18-4.84,17.45,17.45,0,0,0-5.53-1.21V34.56H413v1.53a19.4,19.4,0,0,0-4.84.95,17.86,17.86,0,0,0-4.26,2.34,101.17,101.17,0,0,0-8.84,7.85L373.67,67.82l30.42,38.76,3.76,4.85a37.77,37.77,0,0,0,8.64,8,23.87,23.87,0,0,0,4.76,2.53,23.4,23.4,0,0,0,5.15,1.22v1.51H382.79v-1.51a18.14,18.14,0,0,0,7.14-1.65,4,4,0,0,0,2.18-3.71q0-2.62-2.72-6.72c-.87-1.32-2.53-3.63-4.94-6.87s-4.5-6-6.14-8L363.46,77.81,359.17,82v21.8a48,48,0,0,0,.77,10,11,11,0,0,0,6.92,8.12,20.9,20.9,0,0,0,6.17,1.09v1.51h-42.2v-1.51A20.78,20.78,0,0,0,337,122a11.2,11.2,0,0,0,4.13-2.74,10.76,10.76,0,0,0,2.84-5.36,50.3,50.3,0,0,0,.73-10V55.28a50.41,50.41,0,0,0-.73-10,10.7,10.7,0,0,0-2.84-5.34A10.36,10.36,0,0,0,337,37.14a21.66,21.66,0,0,0-6.13-1V34.56H373v1.53a21.46,21.46,0,0,0-6.05,1,11,11,0,0,0-4.19,2.77,11.15,11.15,0,0,0-2.85,5.44,47.86,47.86,0,0,0-.76,10Z"/><path class="cls-1" d="M480,34.56v1.53a24.32,24.32,0,0,0-5.62.84,11.41,11.41,0,0,0-3.89,2.18A10.91,10.91,0,0,0,467,44.59,41,41,0,0,0,466,55v58.93a54.46,54.46,0,0,1-1.32,13.76,18,18,0,0,1-4.84,8.21,25.69,25.69,0,0,1-9.44,5.45,36.48,36.48,0,0,1-12.11,2.07,31.71,31.71,0,0,1-7.2-.79,18.41,18.41,0,0,1-5.6-2.1,7.23,7.23,0,0,1-3.91-6.34,5.21,5.21,0,0,1,5.49-5.41,5.57,5.57,0,0,1,4,1.58,7.54,7.54,0,0,1,1.38,1.94c.4.78,1,2.19,1.79,4.27a9.67,9.67,0,0,0,2.64,4.05,6.12,6.12,0,0,0,4,1.21,8.16,8.16,0,0,0,5.51-2A12.9,12.9,0,0,0,450,133.8q1.67-5.34,1.65-20.52V54.88a44.08,44.08,0,0,0-.59-7.52,12.11,12.11,0,0,0-3.17-6.72,15.46,15.46,0,0,0-10.42-4.55V34.56Z"/><path class="cls-1" d="M516.22,23.55a57.21,57.21,0,0,0,5.94,14.78q4,6.9,16.22,18.4Q550,67.16,552.85,72.47a25,25,0,0,1,3,11.22,17.66,17.66,0,0,1-5.29,13.18,17.25,17.25,0,0,1-12.52,5.21q-12.81,0-21-15.69.33,13.15,3.63,20A24.23,24.23,0,0,0,530.59,117q6.66,3.87,17.58,4.52l.5,3H483.79l.49-3a34.72,34.72,0,0,0,17.16-3.93,25.87,25.87,0,0,0,10.68-11q3.64-7.05,3.64-19V86.39q-7.41,15.75-21.36,15.69a17.53,17.53,0,0,1-12.77-5.21,17.33,17.33,0,0,1-5.33-12.76,23.12,23.12,0,0,1,3.64-12.93q3.63-5.55,11.91-12.29,11.22-9.78,16.69-17.44A47.94,47.94,0,0,0,516.22,23.55Z"/><path class="cls-1" d="M640.29,34.1l.79,29.51h-1.52c-.48-1.29-.86-2.26-1.12-2.91q-2.31-6.33-3.77-9.44a33.16,33.16,0,0,0-7.45-10.16A24.37,24.37,0,0,0,619.56,36a24,24,0,0,0-8.91-1.56,25.12,25.12,0,0,0-12.94,3.23,32.6,32.6,0,0,0-9,8.16A47.67,47.67,0,0,0,581.94,58a59.19,59.19,0,0,0-3.75,21.8,63.45,63.45,0,0,0,2.56,18.68,37.66,37.66,0,0,0,7.53,13.92q9.12,10.43,24.16,10.43A33.72,33.72,0,0,0,626,120.17a21.3,21.3,0,0,0,9.31-7.36A37.65,37.65,0,0,0,640.81,98l1.51.27q-1.2,10.42-5.66,16.56a26.47,26.47,0,0,1-11.66,9,44.12,44.12,0,0,1-17.19,3.1,55.6,55.6,0,0,1-17.41-2.7,38.3,38.3,0,0,1-20.73-15.75q-7.44-11.39-7.46-27.15a56,56,0,0,1,4.36-22.28,41.24,41.24,0,0,1,12.11-16.4A47.64,47.64,0,0,1,593,35.09a50,50,0,0,1,33.59.2L632,37.07a8,8,0,0,0,2.77.59,3.26,3.26,0,0,0,2.72-1.38,13.59,13.59,0,0,0,1.12-2.18Z"/><path class="cls-1" d="M674,78.71,701.85,51A51.63,51.63,0,0,0,707,45.42a5.7,5.7,0,0,0,1-3.27,5.24,5.24,0,0,0-3.16-4.84,17.63,17.63,0,0,0-5.55-1.21V34.56h28.5v1.53A19.49,19.49,0,0,0,723,37a17.9,17.9,0,0,0-4.32,2.34,102.64,102.64,0,0,0-8.84,7.85L688.45,67.82l30.43,38.76,3.77,4.85a37.52,37.52,0,0,0,8.63,8A23.87,23.87,0,0,0,736,122a23.4,23.4,0,0,0,5.15,1.22v1.51H697.58v-1.51a18.14,18.14,0,0,0,7.14-1.65,4,4,0,0,0,2.18-3.71c0-1.75-.91-4-2.71-6.72q-1.34-2-5-6.87t-6.11-8L678.28,77.81,674,82v21.8a48.63,48.63,0,0,0,.75,10,11.08,11.08,0,0,0,6.94,8.12,20.9,20.9,0,0,0,6.17,1.09v1.51H645.68v-1.51a20.9,20.9,0,0,0,6.17-1.09,11.36,11.36,0,0,0,4.13-2.74,10.75,10.75,0,0,0,2.83-5.36,50.3,50.3,0,0,0,.73-10V55.28a50.41,50.41,0,0,0-.73-10A10.69,10.69,0,0,0,656,39.91a10.47,10.47,0,0,0-4.17-2.77,21.66,21.66,0,0,0-6.13-1V34.56h42.17v1.53a21.53,21.53,0,0,0-6.06,1,10.88,10.88,0,0,0-4.29,2.77,11.17,11.17,0,0,0-2.76,5.44,48.54,48.54,0,0,0-.75,10Z"/><path class="cls-1" d="M779.6,124.38l.19-27.26,1.52.07a59.38,59.38,0,0,0,6.6,16.39q7.2,11.07,18.08,11.06a16.76,16.76,0,0,0,12.54-5.07,17.69,17.69,0,0,0,5-12.88,23.36,23.36,0,0,0-1.09-6.85,20.06,20.06,0,0,0-2.95-6.06,22.1,22.1,0,0,0-5.38-5,102.56,102.56,0,0,0-10.59-5.92,103.52,103.52,0,0,1-9.61-5.34,27.85,27.85,0,0,1-5.38-4.42A21.62,21.62,0,0,1,782.88,58a26.19,26.19,0,0,1,2.21-10.55,25.29,25.29,0,0,1,6.18-8.71,23.52,23.52,0,0,1,16.55-6.47,24.77,24.77,0,0,1,5.75.62,47.81,47.81,0,0,1,7.06,2.42c2.2.87,3.69,1.44,4.49,1.68a6.87,6.87,0,0,0,2.11.36q2.31,0,3.1-3.36h1.51l.46,26.2h-1.51c-1.21-4.18-2.2-7.39-3.06-9.61a35.39,35.39,0,0,0-3.07-6.16,23.58,23.58,0,0,0-7.11-7.63,16.36,16.36,0,0,0-9-2.43,14.59,14.59,0,0,0-11.66,5,15.15,15.15,0,0,0-2.79,4.85,15.46,15.46,0,0,0-1,5.54q0,11,14.17,17.77L816.52,72Q827.26,77.09,832,83.23a25,25,0,0,1,5.39,16A28.33,28.33,0,0,1,835,110.82a25.72,25.72,0,0,1-10.3,11.88,30.37,30.37,0,0,1-16.17,4.18,40.88,40.88,0,0,1-16.36-3.36c-2.73-1.21-4.36-1.87-4.85-2a5.91,5.91,0,0,0-1.78-.27,4.36,4.36,0,0,0-4.36,3.17Z"/><path class="cls-1" d="M881.89,36.61q-4.15,0-8.91.26-10.15.54-15.14,2.58a17.75,17.75,0,0,0-8.23,7.11,37.13,37.13,0,0,0-4.55,12.55L843.54,59l1.22-24.36H934L935.23,59l-1.53.13q-1.79-9.18-5.57-13.89a21,21,0,0,0-11.06-6.77q-6.14-1.79-20.79-1.78V104a47.91,47.91,0,0,0,.77,10,11.09,11.09,0,0,0,7,8.16,21.76,21.76,0,0,0,6.05,1v1.51H867.93v-1.51a21.86,21.86,0,0,0,6.16-1,11.13,11.13,0,0,0,7-8.13,47.53,47.53,0,0,0,.77-10Z"/><path class="cls-1" d="M1050.32,36.61c-2.77,0-5.75.09-8.91.26q-10.15.54-15.14,2.58a17.75,17.75,0,0,0-8.23,7.11,37.13,37.13,0,0,0-4.55,12.55L1012,59l1.21-24.36h89.26L1103.66,59l-1.53.13q-1.79-9.18-5.57-13.89a21,21,0,0,0-11.06-6.77q-6.13-1.79-20.79-1.78V104a47.91,47.91,0,0,0,.77,10,11.09,11.09,0,0,0,7,8.16,21.83,21.83,0,0,0,6,1v1.51h-42.16v-1.51a21.86,21.86,0,0,0,6.16-1,11.14,11.14,0,0,0,7-8.13,48.19,48.19,0,0,0,.76-10Z"/><path class="cls-1" d="M1108,124.38l.21-27.26,1.51.07a59.1,59.1,0,0,0,6.61,16.39q7.18,11.07,18.08,11.06a16.82,16.82,0,0,0,12.54-5.07,17.73,17.73,0,0,0,4.94-12.88,22.72,22.72,0,0,0-1.09-6.85,19.55,19.55,0,0,0-2.93-6.06,22.47,22.47,0,0,0-5.38-5,101.55,101.55,0,0,0-10.59-6,103.35,103.35,0,0,1-9.6-5.34,27.55,27.55,0,0,1-5.38-4.42,21.57,21.57,0,0,1-5.68-15.12,25.91,25.91,0,0,1,2.22-10.55,25.15,25.15,0,0,1,6.17-8.61,23.58,23.58,0,0,1,16.57-6.47,24.62,24.62,0,0,1,5.74.62A48.71,48.71,0,0,1,1149,35.3c2.19.87,3.69,1.44,4.48,1.68a6.87,6.87,0,0,0,2.11.36c1.55,0,2.58-1.12,3.11-3.36h1.5l.46,26.2h-1.51c-1.21-4.18-2.22-7.39-3.07-9.61a36.07,36.07,0,0,0-3.06-6.16,23.83,23.83,0,0,0-7.12-7.63,16.36,16.36,0,0,0-9-2.43,14.52,14.52,0,0,0-11.66,5,15.18,15.18,0,0,0-2.8,4.85,16.13,16.13,0,0,0-1,5.54q0,11,14.16,17.77l9.29,4.46q10.77,5.09,15.5,11.23a25.1,25.1,0,0,1,5.4,16,28.33,28.33,0,0,1-2.42,11.58,25.83,25.83,0,0,1-10.3,11.88,30.45,30.45,0,0,1-16.16,4.18,41,41,0,0,1-16.37-3.37c-2.73-1.21-4.35-1.86-4.85-2a5.38,5.38,0,0,0-1.78-.27,4.34,4.34,0,0,0-4.35,3.16Z"/><path class="cls-1" d="M1006.86,125.83h-68l.65-2.83q10.9-2.09,15.75-4.35a24.18,24.18,0,0,0,8.6-7.08,38.87,38.87,0,0,0,6-10.81A35.29,35.29,0,0,0,972,88.64l-.24-3.79q-4.6,9.78-11.72,14.54a25.68,25.68,0,0,1-14.36,4.72,21.89,21.89,0,0,1-15.82-6.33,21.54,21.54,0,0,1-6.54-16.19,22,22,0,0,1,5.92-15.65q6-6.31,13.41-6.49,4.92,0,13.07,4.12-3-5.32-4.43-8.48a20.36,20.36,0,0,1-.9-6.06A20.61,20.61,0,0,1,957,33.21a22.29,22.29,0,0,1,15.66-6.05,21.53,21.53,0,0,1,15.82,6.45,20.73,20.73,0,0,1,6.41,15q0,6.95-5.56,14.85A83.49,83.49,0,0,1,997.37,60a15.2,15.2,0,0,1,4.93-.64,17.45,17.45,0,0,1,13.88,6.3,21.11,21.11,0,0,1,6,15.49,22.4,22.4,0,0,1-6.3,16.06,20.69,20.69,0,0,1-15.66,6.63,23.75,23.75,0,0,1-9.28-2,33.07,33.07,0,0,1-8.6-5.28q-3.84-3.28-8.76-11.75a62.08,62.08,0,0,0,2.35,16.25,29.13,29.13,0,0,0,6.46,11.06,28.37,28.37,0,0,0,9.6,7,68.26,68.26,0,0,0,14.18,3.79Z"/></g></svg>